{"glyphs":{":":{"x_min":0,"x_max":309,"ha":309,"o":"m 111 -1 l 100 -1 q 70 -1 70 16 l 70 30 l 70 32 l 70 37 q 71 41 71 43 q 71 79 99 111 q 112 126 142 126 l 155 127 l 170 127 q 199 127 199 108 l 199 96 q 199 62 172 19 q 162 2 135 2 q 125 0 124 0 z m 179 359 l 170 359 q 139 359 139 378 l 139 392 l 139 394 l 139 398 q 140 402 140 405 q 140 434 167 471 q 177 486 205 486 l 211 487 l 223 488 l 240 488 q 246 487 250 487 q 268 487 268 464 l 268 462 q 268 423 240 379 q 229 361 196 361 q 192 360 190 360 z"},"$":{"x_min":0,"x_max":564,"ha":564,"o":"m 304 84 l 304 80 q 304 77 307 77 l 309 77 l 311 78 q 338 78 370 118 q 401 158 401 205 l 401 208 q 401 234 387 258 q 374 282 353 282 q 346 282 346 257 l 344 236 q 343 233 343 230 l 342 219 q 342 207 332 171 q 319 125 312 105 q 304 85 304 84 z m 291 443 l 292 456 l 293 465 q 295 473 295 484 q 295 495 308 535 l 309 537 l 311 542 l 311 544 q 313 552 315 556 l 319 567 l 320 569 l 320 572 l 321 574 q 328 589 328 591 l 328 595 q 328 598 324 598 l 322 598 l 321 597 l 319 597 q 287 597 257 549 q 238 519 238 485 l 238 480 q 238 446 255 429 q 272 412 282 412 l 285 412 q 290 412 290 431 z m 177 -55 l 181 -20 q 181 1 131 29 q 80 57 80 72 l 80 82 q 80 93 98 111 q 116 128 125 128 q 135 128 175 105 q 214 83 240 83 q 266 83 279 121 q 311 208 311 268 q 311 289 296 304 q 295 305 249 339 q 203 373 183 400 q 164 427 164 463 q 164 500 179 541 q 217 638 327 653 q 357 657 365 660 q 372 664 393 697 q 405 716 431 716 q 444 716 444 694 q 444 672 479 653 q 528 626 528 611 q 528 596 513 580 q 499 564 483 564 q 468 564 439 579 q 410 594 397 594 q 370 594 356 556 q 326 473 326 425 q 326 402 340 389 q 341 388 365 371 q 390 354 413 338 q 435 321 456 291 q 478 262 478 223 q 478 185 459 140 q 419 45 339 26 q 332 24 303 21 q 274 19 262 13 q 251 7 235 -28 q 220 -64 198 -64 q 177 -64 177 -55 z"},"?":{"x_min":0,"x_max":485,"ha":485,"o":"m 255 99 l 255 95 l 254 93 q 254 42 226 13 q 209 -3 171 -3 l 159 -3 l 157 -2 l 153 -2 q 149 -1 147 -1 q 128 -1 128 17 l 128 25 l 129 27 q 129 60 155 101 q 166 118 195 118 q 202 120 204 120 l 214 121 l 225 121 q 230 119 236 119 q 255 119 255 99 z m 229 201 q 191 201 191 238 q 191 289 217 333 q 230 356 277 394 q 323 431 350 465 q 377 499 377 536 q 377 574 353 593 q 330 613 296 613 q 263 613 212 593 q 160 572 153 572 q 126 572 126 599 l 126 606 q 126 636 170 659 q 244 697 304 697 l 314 697 q 382 697 427 659 q 472 621 472 557 l 472 548 q 472 494 436 444 q 400 394 363 358 q 343 338 320 320 q 297 302 289 292 q 281 282 274 249 q 267 216 260 209 q 253 201 229 201 z"},"<":{"x_min":0,"x_max":591,"ha":591,"o":"m 517 64 q 517 44 504 44 q 492 44 432 80 q 373 116 255 174 q 138 233 112 249 q 85 264 85 296 q 85 328 109 342 q 132 356 281 425 q 429 494 478 523 q 526 552 537 552 q 544 552 544 536 q 544 484 499 454 q 489 447 339 376 q 189 305 189 301 q 189 285 318 224 q 447 163 477 141 q 517 113 517 64 z"},"'":{"x_min":0,"x_max":265,"ha":265,"o":"m 213 712 l 245 712 q 263 712 263 702 l 263 699 q 263 695 241 594 q 220 493 210 471 q 201 449 176 449 l 159 449 q 146 449 146 457 l 146 467 q 148 478 148 484 q 148 491 149 498 q 153 534 153 541 q 155 554 155 562 l 161 608 q 161 674 176 700 q 184 712 213 712 z"},"=":{"x_min":0,"x_max":598,"ha":598,"o":"m 560 222 l 560 200 q 560 176 551 169 q 542 163 521 163 l 102 163 q 75 163 75 183 l 76 188 l 76 192 q 76 221 84 228 q 93 234 120 234 l 534 234 q 560 234 560 222 z m 122 433 l 547 433 q 573 433 573 417 l 573 412 q 573 408 573 393 q 573 378 566 370 q 559 361 528 361 l 131 361 q 88 361 88 374 l 88 387 l 88 392 q 88 414 94 424 q 99 433 122 433 z"},"a":{"x_min":0,"x_max":523,"ha":523,"o":"m 371 338 l 371 347 q 371 379 358 389 q 344 399 315 399 l 301 399 q 276 399 248 384 q 220 369 197 338 q 150 274 150 194 l 150 176 q 150 129 171 104 q 192 80 224 80 l 228 80 q 251 80 281 99 q 311 118 327 147 q 369 223 369 308 q 370 316 370 321 z m 276 481 l 293 481 q 302 481 328 477 l 345 473 q 385 467 390 467 q 396 467 422 472 q 447 478 470 478 q 499 478 499 440 l 499 433 q 499 423 489 371 q 446 142 446 85 q 446 28 436 14 q 425 -1 396 -1 q 366 -1 356 9 q 346 19 339 36 q 332 53 328 53 q 325 53 302 36 q 278 19 271 14 q 229 -10 188 -10 l 179 -10 q 117 -10 77 37 q 37 83 37 161 l 37 180 q 37 239 58 296 q 100 409 183 455 q 230 481 276 481 z"},"L":{"x_min":0,"x_max":500,"ha":500,"o":"m 197 700 l 215 700 q 245 700 255 691 q 264 681 264 658 q 264 635 216 396 q 168 156 168 129 q 168 103 204 94 q 239 86 317 86 q 395 86 411 81 q 440 69 440 35 q 440 0 421 0 l 395 0 l 375 2 l 315 7 q 294 8 205 8 q 116 8 83 18 q 65 23 65 49 q 65 61 179 679 q 183 700 197 700 z"},"3":{"x_min":0,"x_max":556,"ha":556,"o":"m 372 685 q 516 685 516 562 q 516 511 490 471 q 465 432 434 407 l 385 368 q 385 365 416 343 q 447 321 465 291 q 483 262 483 213 q 483 122 415 57 q 381 25 335 9 q 290 -7 231 -7 q 173 -7 106 23 q 39 53 39 84 q 39 119 76 119 q 84 119 143 97 q 201 75 245 75 q 312 75 351 116 q 390 157 390 208 q 390 282 316 306 q 313 307 290 312 q 267 318 259 322 q 241 331 241 349 q 241 379 265 394 q 272 399 294 406 q 415 447 415 543 q 415 570 394 586 q 374 602 337 602 q 301 602 241 587 q 182 573 171 573 q 149 573 149 599 q 149 625 225 655 q 301 685 372 685 z"},";":{"x_min":0,"x_max":310,"ha":310,"o":"m 146 133 l 170 133 q 202 133 202 122 l 202 116 q 202 97 179 36 q 156 -25 135 -56 q 76 -142 38 -142 l 31 -142 q 14 -142 14 -127 l 14 -125 l 58 -67 q 86 -31 86 -1 q 86 -1 84 12 l 83 18 q 83 23 83 28 q 83 74 102 104 q 120 133 146 133 z m 174 362 l 161 364 q 146 364 146 380 l 146 393 l 146 395 l 146 399 q 147 403 147 405 q 147 455 178 477 q 198 491 233 491 l 241 491 q 274 491 274 470 l 274 461 q 274 425 247 380 q 236 364 205 364 q 200 363 198 363 l 189 362 z"},"J":{"x_min":0,"x_max":436,"ha":436,"o":"m 307 556 q 307 570 308 586 q 309 603 309 632 q 309 661 327 681 q 346 701 391 701 q 409 701 414 689 q 421 669 421 619 l 421 610 q 421 603 407 523 q 393 443 386 407 q 378 371 373 340 q 342 167 315 111 q 288 55 241 23 q 194 -8 140 -8 l 129 -8 q 76 -8 26 17 q -7 33 -7 57 q -7 105 38 105 l 84 94 q 124 84 137 84 q 170 84 200 113 q 229 142 247 189 q 264 236 286 354 q 307 473 307 556 z"},"V":{"x_min":0,"x_max":600,"ha":600,"o":"m 663 674 q 663 660 624 597 q 566 505 455 290 q 344 75 335 61 q 304 10 262 10 l 249 10 q 223 10 214 39 q 210 50 189 192 q 144 501 117 609 q 107 651 107 669 q 107 686 124 686 l 134 686 q 162 686 183 667 q 203 648 210 624 q 217 599 250 373 q 283 148 287 148 q 295 148 401 360 q 507 572 534 611 q 585 686 646 686 q 663 686 663 674 z"},"\"":{"x_min":0,"x_max":418,"ha":418,"o":"m 203 715 l 220 715 q 246 715 246 705 l 246 702 q 246 698 237 656 q 228 613 217 559 q 206 504 192 470 q 184 451 150 451 l 145 451 q 130 451 130 463 l 130 466 l 130 469 q 130 469 131 483 q 133 497 134 504 q 134 512 135 519 q 139 554 139 561 q 140 567 140 574 q 141 582 141 585 l 150 656 q 150 694 161 704 q 171 715 203 715 z m 378 715 l 395 715 q 421 715 421 705 l 421 702 q 421 646 369 476 q 362 453 343 453 q 338 452 334 452 l 323 451 l 320 451 q 305 451 305 460 l 305 466 l 306 470 l 307 484 q 308 494 309 501 q 309 508 309 512 l 311 526 q 312 540 313 547 q 313 554 314 559 q 314 564 314 568 l 323 635 q 323 682 335 702 q 343 715 378 715 z"},"7":{"x_min":0,"x_max":553,"ha":553,"o":"m 147 -11 l 137 -11 q 99 -11 99 12 q 99 43 259 300 q 279 333 359 451 q 438 569 438 575 q 438 592 403 597 q 389 599 297 599 q 206 599 178 610 q 150 621 150 654 q 150 676 160 681 q 170 687 201 687 l 210 687 q 220 687 254 684 q 323 678 425 678 q 528 678 548 675 q 567 671 567 655 q 567 625 542 583 q 538 576 500 521 q 334 280 234 93 q 223 72 212 52 q 201 31 193 19 q 175 -11 147 -11 z"},"S":{"x_min":0,"x_max":554,"ha":554,"o":"m 33 94 q 33 109 47 123 q 61 136 75 136 q 89 136 148 108 q 208 81 265 81 q 322 81 363 113 q 404 146 404 193 q 404 240 362 274 q 348 286 269 329 q 190 373 164 403 q 125 448 125 513 q 125 551 144 586 q 179 653 259 684 q 301 699 359 699 q 417 699 484 674 q 551 649 551 623 q 551 609 537 595 q 523 582 509 582 q 494 582 441 601 q 388 620 359 620 q 295 620 257 591 q 218 561 218 519 q 218 476 256 445 q 276 429 353 388 q 429 347 456 317 q 498 271 498 207 q 498 125 440 69 q 410 39 363 20 q 315 0 271 0 l 254 0 q 186 0 127 25 q 33 65 33 94 z"},"}":{"x_min":0,"x_max":381,"ha":381,"o":"m 275 228 q 247 211 232 177 q 217 142 204 42 q 190 -58 165 -94 q 140 -130 98 -151 q 56 -171 17 -171 l 6 -171 q -12 -171 -12 -161 q -12 -139 -1 -126 q 9 -113 47 -94 q 85 -75 100 -47 q 115 -20 130 74 q 145 167 158 196 q 172 225 188 239 q 203 253 222 264 q 242 275 242 279 q 242 282 223 303 q 205 323 197 342 q 189 361 189 389 q 189 416 202 483 q 215 551 215 571 q 215 617 178 643 q 141 668 141 702 q 141 725 170 725 q 228 725 262 693 q 297 661 297 594 q 297 564 283 498 q 269 433 269 399 q 269 366 280 350 q 292 333 314 320 q 337 307 337 285 q 337 264 329 255 q 320 246 300 238 q 281 231 275 228 z"},"Z":{"x_min":0,"x_max":574,"ha":574,"o":"m 459 0 q 455 0 432 2 l 402 5 q 365 8 337 8 l 201 8 q 20 8 20 26 q 20 58 71 124 q 76 129 266 357 q 456 585 456 601 q 456 614 334 614 q 213 614 188 624 q 154 636 154 678 q 154 701 187 701 q 192 701 215 699 l 245 696 q 266 694 310 693 l 326 692 l 445 693 q 599 693 599 680 l 599 668 q 599 639 544 570 q 517 535 479 491 q 167 123 167 104 q 167 87 300 87 q 434 87 463 76 q 493 65 493 34 q 493 0 459 0 z"},"x":{"x_min":0,"x_max":503,"ha":503,"o":"m 211 246 q 211 262 188 308 q 166 354 164 357 q 121 459 121 477 q 121 491 184 491 q 219 491 236 471 q 253 451 268 413 l 280 381 q 291 353 291 353 q 294 353 334 403 q 374 454 393 467 q 424 490 480 490 q 492 490 492 486 q 492 481 452 444 q 413 407 399 392 q 315 298 315 268 q 315 265 363 156 q 410 47 410 34 q 410 10 359 10 q 308 10 286 37 q 271 57 252 110 q 233 163 231 163 q 229 163 184 106 q 140 49 113 30 q 85 10 25 10 l 19 12 q 19 19 62 59 q 104 100 116 112 q 211 220 211 246 z"},")":{"x_min":0,"x_max":347,"ha":347,"o":"m 289 421 l 289 378 q 289 319 270 233 q 251 147 207 59 q 162 -30 106 -99 q 49 -168 21 -168 q -8 -168 -8 -153 q -8 -138 28 -93 q 63 -47 96 7 q 129 61 161 144 q 208 267 208 419 q 208 493 195 547 q 182 600 167 642 q 153 683 153 694 q 153 723 191 723 q 220 723 254 617 q 289 512 289 421 z"},"&":{"x_min":0,"x_max":668,"ha":668,"o":"m 299 79 q 305 80 307 80 q 330 80 353 97 q 376 115 376 122 l 376 125 q 376 129 332 188 q 326 196 292 252 q 257 307 254 307 l 252 307 q 227 307 200 274 q 174 240 174 205 l 174 186 q 174 142 209 110 q 244 79 288 79 z m 305 505 q 305 501 306 495 q 307 488 307 487 q 307 439 328 439 l 330 439 q 357 439 399 503 q 428 545 428 575 l 428 580 q 428 621 394 621 l 385 621 q 361 621 333 589 q 305 557 305 515 l 305 507 z m 589 23 q 589 3 566 3 q 542 3 504 27 q 466 52 437 52 q 428 52 404 42 q 380 32 357 27 q 333 22 258 22 q 183 22 135 66 q 118 82 104 112 q 90 143 90 197 q 90 251 115 287 q 140 323 194 362 q 248 401 248 418 q 248 423 239 470 q 229 517 229 549 q 229 612 264 655 q 299 697 350 697 l 361 697 q 420 697 459 653 q 497 609 497 543 q 497 503 481 478 q 465 452 428 420 q 391 388 377 371 q 363 354 363 324 q 363 295 397 248 q 413 226 429 226 q 446 226 479 256 q 512 286 541 286 q 583 286 583 256 q 583 244 564 195 q 545 146 545 127 q 545 107 567 73 q 589 38 589 23 z"},"_":{"x_min":0,"x_max":527,"ha":527,"o":"m -10 -84 l 476 -84 q 501 -84 501 -98 q 501 -136 478 -136 l -15 -136 q -34 -136 -34 -127 l -34 -123 q -34 -84 -10 -84 z"},"v":{"x_min":0,"x_max":491,"ha":491,"o":"m 515 481 q 515 444 273 54 q 244 8 213 8 l 204 8 q 169 8 159 45 q 155 58 132 189 q 108 321 89 391 q 70 460 70 474 q 70 488 88 488 q 118 488 137 474 q 155 459 166 436 q 177 411 198 270 q 221 128 228 128 q 234 128 310 271 q 385 415 398 434 q 439 490 494 490 q 515 490 515 481 z"},"O":{"x_min":0,"x_max":713,"ha":713,"o":"m 215 249 l 215 219 q 215 160 240 123 q 266 85 312 85 l 319 85 q 359 85 400 117 q 442 149 477 208 q 511 267 530 340 q 549 413 549 465 l 549 473 l 548 480 q 548 537 524 575 q 500 613 457 613 l 444 613 q 366 613 293 502 q 260 452 238 376 q 215 300 215 249 z m 279 -2 l 270 -2 q 191 -2 149 54 q 107 110 107 195 l 107 205 l 108 216 q 108 293 142 388 q 176 483 232 556 q 288 629 354 665 q 421 701 484 701 l 494 701 l 503 701 q 567 701 612 648 q 656 596 656 504 l 656 483 q 656 405 620 308 q 584 211 530 143 q 416 -2 279 -2 z"},"(":{"x_min":0,"x_max":347,"ha":347,"o":"m 182 -168 q 154 -168 119 -62 q 85 44 85 145 l 85 167 q 85 311 156 475 q 190 552 255 637 q 319 723 346 723 l 354 723 q 383 723 383 708 q 383 697 346 648 q 309 600 295 578 q 166 375 166 137 q 166 69 176 21 q 187 -26 204 -79 q 220 -132 220 -139 q 220 -168 182 -168 z"},"C":{"x_min":0,"x_max":621,"ha":621,"o":"m 508 49 q 412 7 340 7 q 268 7 221 27 q 174 47 141 84 q 76 155 76 276 l 76 292 q 76 363 104 440 q 131 516 180 573 q 229 630 293 661 q 357 692 431 692 l 445 692 q 511 692 583 665 q 633 646 633 623 q 633 615 620 598 q 607 581 588 581 q 568 581 518 596 q 468 611 419 611 q 369 611 323 585 q 276 559 240 510 q 171 418 171 274 q 171 191 220 137 q 265 88 346 88 q 390 88 449 111 q 508 133 522 133 q 554 133 554 101 q 554 68 508 49 z"},"W":{"x_min":0,"x_max":882,"ha":882,"o":"m 590 407 q 611 179 620 179 q 630 179 715 377 q 800 575 821 608 q 841 642 867 662 q 894 683 917 683 q 939 683 939 674 q 939 666 895 573 q 851 481 763 289 l 742 240 q 720 191 709 167 q 698 144 677 96 l 655 50 q 634 19 603 19 q 583 19 569 34 q 555 50 548 83 q 540 115 522 312 q 504 508 494 508 l 483 494 l 395 301 q 310 121 291 90 q 249 22 214 22 q 179 22 170 50 l 167 75 q 166 90 162 131 q 159 172 154 232 l 137 444 q 131 506 121 573 q 111 640 111 656 q 111 682 140 682 q 192 682 210 592 q 217 557 228 370 q 238 183 251 183 q 261 183 360 398 q 458 613 465 624 q 490 667 516 667 q 557 667 566 641 l 571 618 z"},"A":{"x_min":0,"x_max":623,"ha":623,"o":"m 312 266 l 334 264 l 344 263 l 347 263 l 351 263 l 354 263 q 393 263 393 292 l 393 301 l 392 305 q 392 310 392 314 l 391 331 q 391 335 391 340 l 390 357 q 390 362 390 366 l 389 384 l 389 392 l 388 410 q 388 414 388 418 l 387 436 q 387 570 382 570 q 380 570 353 493 q 316 391 294 352 q 284 330 265 302 q 247 275 247 271 q 247 268 290 268 z m 456 658 q 457 656 486 366 q 516 75 516 54 q 516 32 507 25 q 499 18 462 18 q 425 18 414 48 q 412 53 404 104 q 396 155 385 164 q 364 183 237 183 q 203 183 195 176 q 188 168 166 117 q 144 66 134 56 q 102 17 60 17 l 51 17 q 35 17 35 23 q 35 30 82 106 q 97 130 174 295 q 250 459 289 545 q 327 630 343 658 q 367 699 410 699 l 419 699 q 450 699 456 658 z"},"f":{"x_min":0,"x_max":340,"ha":340,"o":"m 261 537 q 261 519 296 501 q 330 483 330 463 q 330 442 286 409 q 242 377 230 344 q 218 312 192 173 q 166 35 145 -6 q 124 -46 74 -46 q 48 -46 48 -34 q 48 -20 69 41 q 91 102 101 155 q 129 306 129 345 q 129 384 119 403 q 108 422 108 432 q 108 470 137 493 q 167 517 183 565 q 210 643 231 668 q 276 722 360 722 l 371 722 q 433 722 433 706 q 433 676 407 661 q 398 655 358 648 q 318 641 295 619 q 261 584 261 537 z"},"Q":{"x_min":0,"x_max":718,"ha":718,"o":"m 464 611 l 451 611 q 417 611 376 585 q 293 530 242 380 q 218 310 218 249 l 218 242 q 218 178 245 141 q 285 87 333 87 q 362 87 373 102 q 374 103 382 135 q 390 168 400 182 q 411 196 458 227 q 487 246 506 281 q 553 369 553 477 l 553 484 q 553 540 530 576 q 506 611 464 611 z m 475 -58 l 456 -59 l 437 -59 q 389 -59 347 -40 q 248 6 222 35 q 138 124 138 244 l 138 285 q 138 357 164 444 q 190 532 230 591 q 311 712 419 712 l 429 712 q 519 712 573 643 q 601 608 615 556 q 629 504 629 456 l 629 430 q 629 343 604 265 q 579 187 542 129 q 506 72 506 52 q 506 32 538 -1 q 569 -35 569 -47 q 569 -50 564 -50 q 562 -50 543 -55 q 525 -60 509 -60 l 493 -58 z"},"w":{"x_min":0,"x_max":721,"ha":721,"o":"m 495 147 q 500 147 559 274 q 619 402 636 429 q 653 456 678 471 q 704 487 724 487 q 745 487 745 474 q 745 461 714 409 q 683 357 605 201 q 527 46 522 39 q 505 14 482 14 q 458 14 446 27 q 434 40 426 70 q 418 101 405 224 q 392 348 382 348 q 379 348 313 213 q 247 77 231 54 q 202 13 170 13 q 138 13 129 52 q 127 66 114 172 q 96 326 83 388 q 69 450 69 464 q 69 485 89 485 q 137 485 155 442 q 167 413 181 282 q 194 151 207 151 q 211 151 258 246 q 305 341 330 393 q 354 445 359 453 q 376 477 400 477 q 438 477 447 445 q 448 441 465 294 q 482 147 495 147 z"},"-":{"x_min":0,"x_max":355,"ha":355,"o":"m 326 301 l 324 285 q 324 245 302 240 q 294 238 176 238 l 134 238 l 127 237 l 82 237 l 72 237 q 57 237 57 245 l 57 248 l 58 250 q 58 300 79 311 q 86 314 207 314 l 312 315 l 314 315 q 326 315 326 307 l 326 304 z"},"E":{"x_min":0,"x_max":552,"ha":552,"o":"m 555 663 q 555 629 519 620 q 503 615 416 615 q 328 615 305 599 q 281 583 262 534 q 243 485 243 466 q 243 447 264 442 q 267 442 347 433 q 427 423 435 421 q 453 416 453 392 q 453 341 422 326 q 409 319 313 307 q 217 295 202 280 q 179 255 179 162 q 179 105 214 92 q 225 88 309 85 q 393 83 420 79 q 466 71 466 47 q 466 22 443 13 q 430 8 396 8 l 242 8 q 156 8 104 21 q 65 32 65 61 q 65 83 112 236 q 159 388 165 416 q 171 443 176 537 q 180 631 188 646 q 196 662 215 665 q 367 692 480 692 l 497 692 q 555 692 555 663 z"},"s":{"x_min":0,"x_max":450,"ha":450,"o":"m 23 63 l 23 71 q 23 104 65 104 q 81 104 124 86 q 167 68 207 68 q 247 68 274 88 q 301 108 301 144 q 301 168 267 192 q 260 197 203 227 q 146 257 125 279 q 93 314 93 367 q 93 420 142 461 q 190 501 260 501 l 272 501 q 315 501 371 483 q 427 466 427 448 l 427 440 q 427 428 415 418 q 403 407 387 407 q 371 407 333 420 q 296 433 262 433 q 229 433 203 415 q 177 396 177 372 q 177 347 199 329 q 210 319 273 286 q 336 253 362 224 q 387 194 387 154 q 387 79 333 38 q 280 -2 209 -2 l 197 -2 q 148 -2 86 21 q 23 44 23 63 z"},">":{"x_min":0,"x_max":591,"ha":591,"o":"m 518 253 q 512 249 446 217 q 380 186 368 180 q 357 175 274 136 q 191 97 147 70 q 103 43 92 43 q 81 43 81 62 q 81 110 121 137 q 160 163 299 223 q 437 284 437 296 q 437 306 299 375 q 161 443 144 456 q 108 483 108 534 q 108 551 116 551 l 122 551 q 130 551 184 519 q 238 486 361 425 q 485 363 505 351 q 540 331 540 300 q 540 268 518 253 z"},"l":{"x_min":0,"x_max":276,"ha":276,"o":"m 215 724 l 235 724 q 265 724 265 705 q 265 669 219 443 q 174 217 174 147 q 173 132 173 123 l 173 103 q 173 41 163 20 q 152 -1 116 -1 l 102 -1 q 82 -1 77 8 q 71 17 71 48 l 71 63 q 71 125 100 268 q 128 411 143 495 q 157 578 163 623 q 168 668 172 684 q 182 724 215 724 z"},"8":{"x_min":0,"x_max":565,"ha":565,"o":"m 160 157 l 160 147 q 160 121 180 105 q 201 89 235 89 l 239 89 q 303 89 351 134 q 400 178 400 224 l 400 236 q 400 264 373 283 q 347 301 316 301 l 308 301 l 304 301 q 258 301 209 252 q 160 203 160 157 z m 237 496 l 237 482 q 237 459 262 442 q 287 425 316 425 l 319 425 q 361 425 403 467 q 444 508 444 550 q 444 573 427 588 q 410 603 382 603 l 368 603 q 325 603 281 571 q 237 539 237 496 z m 395 63 q 317 -11 214 -11 q 161 -11 122 25 q 82 62 82 119 l 82 129 q 82 187 108 233 q 134 279 158 301 q 181 323 203 339 q 226 354 226 359 q 226 364 211 378 q 196 392 177 419 q 158 447 158 481 q 158 515 178 555 q 197 595 231 629 q 265 663 306 681 q 347 700 383 700 l 403 700 q 449 700 484 667 q 519 635 519 589 l 519 569 q 519 492 447 417 q 440 411 421 395 q 401 378 401 374 q 401 369 411 360 l 419 354 q 451 328 465 304 q 479 280 479 239 q 479 199 456 150 q 433 101 395 63 z"},"\\":{"x_min":0,"x_max":410,"ha":410,"o":"m 323 -69 q 295 -69 282 -29 q 255 59 224 204 q 192 349 145 522 q 98 696 98 717 l 98 722 q 98 728 113 728 l 121 728 q 155 728 167 707 q 171 699 226 520 q 229 512 250 409 q 271 306 283 270 q 294 233 306 173 q 317 112 339 43 q 360 -26 361 -54 q 361 -69 323 -69 z"},"e":{"x_min":0,"x_max":520,"ha":520,"o":"m 223 311 l 239 312 l 245 312 l 316 318 q 368 318 386 324 q 396 327 396 348 l 396 358 q 396 386 371 401 q 345 415 320 415 l 301 415 q 295 414 292 414 q 254 414 211 376 q 167 337 167 312 l 167 310 q 167 306 175 306 l 183 306 q 201 309 211 309 z m 52 188 l 52 200 q 52 247 77 302 q 131 417 242 463 q 315 494 366 494 q 417 494 448 465 q 479 436 479 384 q 479 299 438 275 q 413 261 296 244 q 180 228 170 226 q 139 218 139 186 q 139 137 168 106 q 198 75 252 75 q 283 75 341 91 q 399 108 411 108 q 436 108 436 82 q 436 52 376 26 q 317 1 237 1 q 157 1 104 52 q 52 103 52 188 z"},"b":{"x_min":0,"x_max":557,"ha":557,"o":"m 236 75 l 248 75 q 299 75 349 152 q 370 184 385 234 q 400 284 400 324 l 400 338 q 400 373 386 396 q 373 419 347 419 l 339 419 q 319 419 290 398 q 235 359 205 238 q 189 178 189 144 l 189 125 q 189 100 203 87 q 217 75 236 75 z m 259 672 l 226 488 q 226 483 230 483 q 234 483 266 502 q 299 522 333 522 q 401 522 442 469 q 483 415 483 334 l 483 321 q 483 204 420 104 q 388 54 349 25 q 310 -4 273 -4 q 252 -4 202 11 q 151 27 146 27 q 141 27 124 17 q 108 7 96 7 q 74 7 74 30 l 74 39 q 74 39 74 39 l 74 40 q 74 40 74 40 q 74 40 74 41 q 74 49 88 100 q 141 287 166 510 q 174 591 176 625 q 178 660 180 672 q 186 700 214 700 l 223 700 q 259 700 259 672 z"},"%":{"x_min":0,"x_max":792,"ha":792,"o":"m 581 54 l 590 54 q 619 54 646 104 q 673 155 673 209 l 673 215 q 673 247 662 259 q 651 272 642 272 l 632 272 q 604 272 577 221 q 549 171 549 119 l 549 107 q 549 82 559 68 q 569 54 581 54 z m 323 563 l 323 578 q 323 609 312 622 q 301 634 292 634 l 282 634 q 249 634 224 579 q 199 524 199 482 l 199 470 q 199 445 209 431 q 219 417 230 417 l 240 417 q 262 417 292 459 q 321 502 321 551 z m 747 241 l 747 225 q 747 187 731 141 q 715 96 688 60 q 660 24 627 7 q 595 -10 565 -10 l 560 -10 q 524 -10 500 16 q 476 42 476 85 l 476 106 q 476 138 491 183 q 506 228 534 265 q 562 302 595 319 q 627 336 653 336 l 667 336 q 699 336 723 310 q 747 284 747 241 z m 732 690 q 732 689 708 655 q 490 348 223 24 q 196 -8 164 -8 l 155 -8 q 139 -8 139 -3 q 139 1 163 34 q 474 452 649 664 q 676 697 708 697 l 716 697 q 732 697 732 690 z m 396 603 l 396 587 q 396 552 381 504 q 351 413 277 370 q 248 353 214 353 l 209 353 q 169 353 148 381 q 126 409 126 448 l 126 470 q 126 500 142 548 q 158 596 188 632 q 243 699 308 699 l 313 699 q 349 699 373 673 q 396 647 396 603 z"},"m":{"x_min":0,"x_max":800,"ha":800,"o":"m 663 329 q 663 413 600 413 q 578 413 556 398 q 534 383 512 351 q 490 320 458 199 q 425 79 423 76 q 411 54 372 54 q 333 54 325 59 q 316 64 316 98 q 316 132 330 224 q 344 315 344 349 q 344 383 334 397 q 325 411 301 411 q 277 411 249 390 q 221 370 199 331 q 178 292 158 198 l 150 158 q 145 134 142 119 l 129 53 q 116 17 83 17 q 50 17 50 47 q 50 138 113 354 q 137 435 148 454 q 159 473 180 473 q 214 473 223 446 q 232 419 237 419 q 241 419 258 428 q 274 437 284 440 q 316 454 363 454 q 411 454 440 433 q 445 429 458 415 q 471 401 477 401 q 483 401 512 427 q 577 484 635 484 q 692 484 720 448 q 748 412 748 349 q 748 313 728 197 q 708 81 698 52 q 685 12 657 12 q 620 12 620 44 q 620 66 641 192 q 663 318 663 329 z"},"#":{"x_min":0,"x_max":596,"ha":596,"o":"m 362 436 l 357 436 q 310 436 296 412 q 294 408 275 352 q 256 295 249 280 q 242 264 242 261 q 242 259 244 259 l 317 278 l 321 278 q 336 278 352 299 q 368 320 368 344 q 368 368 383 394 q 399 420 399 425 l 399 427 q 399 434 376 434 z m 430 310 q 430 285 467 279 q 503 272 503 255 q 503 219 482 208 q 478 206 447 201 q 415 196 405 187 q 395 177 373 109 q 352 41 347 33 q 333 9 294 9 q 280 9 280 18 q 280 26 287 44 l 292 60 q 322 140 322 169 q 322 186 259 186 q 234 186 227 171 q 227 170 212 112 q 198 53 184 28 q 169 2 137 2 q 118 2 118 20 q 118 27 141 81 q 157 128 157 150 q 157 171 127 186 q 97 200 97 218 q 97 253 153 267 q 192 275 203 291 q 226 323 226 380 q 226 410 202 417 q 157 432 157 450 q 157 476 170 486 q 184 497 220 503 q 256 509 263 518 q 269 526 291 600 q 312 673 317 679 q 330 696 353 696 q 377 696 377 679 q 377 678 370 656 q 339 556 339 535 q 339 509 410 509 q 430 509 443 568 q 455 627 469 655 q 484 683 511 683 q 539 683 539 667 q 539 666 530 644 q 505 576 505 546 q 505 516 534 505 q 563 494 563 476 q 563 458 542 442 q 534 436 501 429 q 467 421 459 412 q 450 403 445 379 l 437 342 q 430 312 430 310 z"},",":{"x_min":0,"x_max":297,"ha":297,"o":"m 140 131 l 154 131 q 192 131 192 119 l 192 116 q 192 98 170 39 q 122 -88 61 -130 q 42 -144 26 -144 l 19 -144 q 3 -144 3 -130 l 3 -128 q 3 -121 21 -102 q 75 -41 75 -2 l 73 23 q 73 70 94 107 q 108 131 140 131 z"},"n":{"x_min":0,"x_max":548,"ha":548,"o":"m 425 16 q 369 16 369 65 q 369 80 384 186 q 399 292 399 335 q 399 379 384 403 q 368 427 334 427 q 268 427 221 357 q 189 311 169 223 q 137 81 131 66 q 125 52 104 38 q 84 24 56 24 q 40 24 40 37 q 40 49 66 189 q 92 330 123 436 q 134 474 179 474 q 202 474 208 466 q 215 458 218 443 q 220 428 221 428 q 226 428 248 444 q 314 495 374 495 l 375 496 q 434 495 465 459 q 497 423 497 376 q 497 329 483 255 q 469 181 464 114 q 458 47 449 25 q 445 16 436 16 z"},"h":{"x_min":0,"x_max":549,"ha":549,"o":"m 463 382 l 463 366 q 463 341 408 29 q 404 4 379 4 l 368 4 q 332 4 332 61 q 332 87 356 218 q 381 349 381 373 q 381 419 333 419 q 318 419 293 403 q 268 386 244 344 q 221 302 197 187 q 174 71 164 48 q 146 4 114 4 q 83 4 83 28 l 83 41 q 83 103 170 657 q 176 694 202 694 l 214 694 q 259 694 259 668 q 259 661 251 609 q 242 557 238 537 l 232 511 q 227 491 227 487 q 227 484 230 484 l 249 492 l 256 494 l 265 496 l 275 498 q 321 510 349 510 q 398 510 431 476 q 463 441 463 382 z"},"z":{"x_min":0,"x_max":476,"ha":476,"o":"m 314 78 q 397 78 397 30 q 397 0 374 0 l 364 0 q 353 0 333 2 q 291 6 164 7 q 37 7 33 8 q 19 11 19 27 q 19 54 175 228 q 331 402 331 414 q 331 421 257 421 l 219 422 q 207 422 195 422 q 111 422 111 469 q 111 500 143 500 q 160 500 181 498 q 225 493 347 493 q 468 493 468 479 q 468 454 432 406 q 427 399 292 248 q 156 98 156 89 q 156 80 252 80 l 290 79 q 303 78 314 78 z"},"B":{"x_min":0,"x_max":606,"ha":606,"o":"m 446 234 l 446 242 q 446 265 424 281 q 402 297 359 297 l 318 297 l 314 296 l 305 296 l 295 296 l 286 296 l 273 295 l 256 294 q 223 294 213 274 q 167 184 167 113 l 167 108 q 167 101 177 101 l 262 110 l 271 111 q 340 111 391 144 q 417 160 431 187 q 446 215 446 234 z m 237 418 l 246 418 l 263 420 q 311 427 318 427 q 382 427 425 462 q 468 497 468 540 l 468 549 q 468 567 450 579 q 432 590 401 590 l 370 590 l 366 590 l 354 589 l 346 589 l 307 587 q 279 587 271 574 q 263 562 245 502 q 227 442 227 427 l 227 425 l 227 423 q 227 418 237 418 z m 224 -3 l 125 -3 q 71 -3 71 13 q 71 22 91 90 q 111 157 129 221 q 164 349 176 478 q 187 606 207 643 q 217 662 243 669 q 329 691 419 691 l 439 691 q 488 691 520 662 q 552 632 552 589 l 552 569 q 552 530 531 497 q 510 464 473 430 q 435 396 435 393 q 435 389 446 380 q 457 372 469 360 q 482 348 496 320 q 510 292 510 243 q 510 194 488 147 q 445 55 348 20 q 286 -3 224 -3 z"},"K":{"x_min":0,"x_max":613,"ha":613,"o":"m 470 3 q 424 3 400 41 q 384 67 337 188 q 291 309 274 309 q 227 309 206 137 q 193 36 187 25 q 175 2 147 2 l 133 2 q 102 2 102 38 q 102 52 119 213 q 137 375 144 404 q 184 593 212 657 q 228 692 270 692 q 312 692 312 664 q 312 661 283 548 q 253 436 253 426 q 253 416 260 416 q 273 416 338 488 q 404 560 436 598 q 467 636 480 647 q 526 687 590 687 q 602 687 602 682 q 602 674 560 635 q 519 595 500 573 q 481 550 437 500 q 394 450 384 438 q 354 401 354 368 q 354 355 425 189 q 496 22 496 13 q 496 3 470 3 z"},"R":{"x_min":0,"x_max":611,"ha":611,"o":"m 482 529 l 482 543 q 482 562 467 575 q 451 589 426 589 l 418 590 l 402 590 l 394 590 l 389 590 l 329 587 q 316 585 312 585 q 283 585 272 560 q 225 450 225 400 l 225 397 q 225 389 234 389 l 237 389 l 241 389 q 261 389 326 401 q 390 412 417 429 q 444 446 463 474 q 482 501 482 529 z m 456 1 l 446 1 q 408 1 390 38 q 382 54 355 146 q 328 238 310 263 q 292 288 260 288 q 228 288 220 264 q 215 251 212 216 q 204 88 185 45 q 166 1 113 1 q 94 1 94 15 q 94 79 144 345 q 193 611 222 664 q 231 681 257 687 q 309 700 384 700 l 396 700 q 465 700 507 670 q 550 640 550 575 l 550 562 q 550 486 521 437 q 493 387 448 352 q 403 317 403 304 q 403 291 443 160 q 483 30 483 20 q 483 1 456 1 z"},"T":{"x_min":0,"x_max":537,"ha":537,"o":"m 478 701 l 507 701 q 560 701 560 681 q 560 644 526 623 q 506 611 449 605 q 393 600 381 582 q 378 577 367 501 q 356 425 343 360 q 330 295 308 176 q 286 57 279 37 q 268 2 200 2 l 191 2 q 182 2 182 20 q 182 22 187 39 l 195 71 q 209 131 247 337 q 285 542 285 559 q 285 592 222 602 l 196 605 q 179 607 171 609 q 152 616 152 634 l 152 642 q 152 682 186 691 q 219 700 393 700 z"},"P":{"x_min":0,"x_max":574,"ha":574,"o":"m 353 591 l 328 588 q 291 588 281 568 q 279 564 271 541 q 264 517 262 511 q 260 506 254 488 q 248 469 235 429 q 221 389 221 379 q 221 369 231 369 l 234 369 l 238 370 q 287 370 336 385 q 385 400 411 418 q 437 437 455 470 q 472 503 472 533 l 472 544 q 472 594 404 594 l 400 594 l 396 593 l 375 592 z m 438 684 l 457 684 q 508 684 540 654 q 571 624 571 575 l 571 555 q 571 509 545 457 q 518 405 471 368 q 424 331 387 317 q 350 303 283 291 q 216 280 201 266 q 187 252 168 153 q 150 53 143 38 q 126 1 64 1 l 56 1 q 45 1 45 14 q 46 15 52 36 q 66 88 89 210 q 111 333 115 346 q 183 591 205 633 q 217 656 248 662 q 354 684 438 684 z"},"|":{"x_min":0,"x_max":367,"ha":367,"o":"m 208 -213 l 189 -213 q 157 -213 157 -185 l 157 -163 l 167 283 q 167 641 177 741 q 179 766 213 766 l 223 766 q 255 766 255 737 l 255 727 l 249 438 q 249 428 249 417 l 245 270 q 245 -81 235 -188 q 232 -213 208 -213 z"},"t":{"x_min":0,"x_max":352,"ha":352,"o":"m 210 -3 l 192 -3 q 153 -3 124 29 q 94 61 94 101 l 94 121 q 94 144 114 247 q 134 349 134 378 q 134 406 117 420 q 101 434 101 454 q 101 475 110 484 q 120 494 139 499 q 157 504 162 511 q 167 517 175 561 q 183 604 199 621 q 215 638 244 638 l 251 638 q 271 638 271 615 q 271 608 267 588 q 264 567 264 546 q 264 524 300 508 q 337 492 337 482 q 337 453 311 435 q 305 431 291 427 q 277 422 270 419 q 246 410 235 385 q 224 360 206 277 q 188 194 188 150 q 188 105 227 84 q 266 63 266 24 q 266 -3 210 -3 z"},"M":{"x_min":0,"x_max":801,"ha":801,"o":"m 633 145 q 633 170 653 315 q 672 460 672 485 q 672 510 665 510 q 655 510 544 310 q 433 109 423 97 q 399 68 367 68 q 350 68 339 94 q 333 110 299 311 q 265 511 250 511 q 234 511 195 344 q 156 177 138 126 q 102 28 57 28 q 37 28 37 55 q 37 68 57 128 q 78 187 125 388 q 173 590 181 614 q 199 676 229 676 q 288 676 315 613 q 332 573 364 396 q 396 218 408 218 l 419 232 l 443 276 q 452 292 468 323 l 505 392 q 600 566 626 602 q 652 639 683 659 q 713 679 740 679 q 774 679 774 649 q 774 628 751 458 q 720 219 717 168 l 716 145 l 715 122 q 714 95 711 80 q 703 32 666 32 l 656 39 q 633 64 633 145 z"},"g":{"x_min":0,"x_max":559,"ha":559,"o":"m 388 363 l 388 376 q 388 399 373 414 q 359 428 335 428 l 327 428 l 323 428 q 271 428 222 352 q 173 277 173 189 l 173 175 q 173 144 186 121 q 200 98 224 98 l 235 98 q 252 98 281 115 q 341 151 372 266 q 388 327 388 363 z m 493 468 q 493 457 470 336 q 447 215 429 77 q 412 -62 409 -68 q 385 -125 326 -162 q 268 -199 195 -199 l 180 -199 q 119 -199 73 -173 q 26 -148 26 -120 q 26 -80 48 -80 q 59 -80 114 -100 q 169 -120 203 -120 q 268 -120 312 -68 q 356 -15 356 38 l 354 41 q 350 41 334 33 q 291 9 250 9 q 217 9 186 25 q 161 38 138 66 q 94 119 94 221 q 94 270 112 329 q 130 389 156 424 q 183 459 228 485 q 272 511 308 511 q 343 511 378 495 q 413 479 418 479 l 424 481 l 438 488 q 450 493 462 493 q 493 493 493 468 z"},"j":{"x_min":0,"x_max":277,"ha":277,"o":"m 188 501 l 202 501 q 219 501 223 494 q 228 487 228 447 l 228 440 q 228 413 206 296 q 184 179 183 172 q 150 -23 126 -85 q 79 -202 -26 -202 l -27 -202 l -35 -202 q -73 -202 -73 -186 q -73 -159 -58 -144 q -44 -128 -18 -116 q 9 -104 24 -89 q 40 -73 52 -38 q 64 -2 96 174 q 129 351 129 406 q 129 462 140 481 q 151 501 188 501 z m 288 678 l 286 663 q 286 592 207 592 l 199 592 q 167 592 167 614 l 167 616 l 168 618 q 168 621 169 629 q 170 637 170 637 q 170 663 192 689 q 204 704 230 704 q 234 705 236 705 l 247 706 l 260 706 q 270 703 274 703 q 288 703 288 686 z"},"i":{"x_min":0,"x_max":271,"ha":271,"o":"m 180 500 l 205 500 q 227 500 227 486 l 227 476 q 227 448 203 332 q 180 216 175 156 q 170 95 154 39 q 142 0 99 0 l 79 0 q 56 0 56 17 l 56 22 q 56 52 72 115 q 87 178 104 267 q 122 357 122 397 l 123 425 q 123 467 136 484 q 149 500 180 500 z m 248 705 l 262 703 q 278 703 278 687 l 278 677 l 276 662 q 276 639 255 609 q 245 595 221 595 q 211 592 207 592 l 197 591 l 189 591 q 159 591 159 610 l 159 619 l 161 635 q 161 662 183 688 q 195 703 224 703 q 228 704 229 704 l 240 705 z"},"y":{"x_min":0,"x_max":496,"ha":496,"o":"m 208 -72 q 124 -204 42 -204 q 1 -203 1 -182 q 1 -145 44 -121 q 67 -108 75 -103 q 110 -78 138 -37 q 165 3 165 72 q 165 101 140 272 q 115 443 115 458 q 115 497 152 497 q 191 497 204 452 q 213 422 228 288 q 242 153 247 153 q 252 153 312 288 q 371 422 384 444 q 397 466 419 481 q 441 496 468 496 q 480 496 480 484 q 480 480 467 458 q 454 436 451 431 q 448 426 424 372 q 259 5 208 -72 z"},"@":{"x_min":0,"x_max":837,"ha":837,"o":"m 510 428 q 549 441 564 441 q 579 441 584 432 q 590 422 590 393 l 588 371 l 584 324 q 580 273 580 257 q 580 195 609 195 q 627 195 653 212 q 678 229 704 274 q 729 319 729 375 q 729 431 715 476 q 701 521 665 556 q 589 628 479 628 l 478 628 q 341 628 241 529 q 189 479 159 407 q 129 335 129 267 q 129 134 204 53 q 283 -34 439 -34 q 476 -34 532 -20 q 588 -7 596 -7 q 628 -7 628 -27 q 628 -46 553 -64 q 479 -82 417 -82 l 388 -82 q 317 -82 258 -53 q 198 -25 161 13 q 92 84 75 188 q 69 222 69 246 q 69 438 195 569 q 312 691 489 691 q 552 691 609 670 q 667 650 708 611 q 795 531 795 406 q 795 296 737 213 q 706 167 670 147 q 635 128 610 128 q 585 128 563 135 l 543 143 l 528 153 l 515 161 q 508 161 469 144 q 430 127 405 127 q 352 127 310 165 q 292 181 277 209 q 263 237 263 273 q 263 346 305 391 q 348 437 406 437 q 431 437 452 432 q 441 429 430 421 q 397 400 375 365 q 330 294 330 227 l 330 211 q 330 188 342 172 q 354 155 375 155 l 378 155 q 393 155 418 169 q 444 183 463 215 q 520 309 520 384 l 520 405 q 520 420 510 428 z"},".":{"x_min":0,"x_max":296,"ha":296,"o":"m 90 -1 l 76 1 q 60 1 60 17 l 60 31 q 60 72 88 111 q 99 126 126 126 l 133 128 l 144 129 l 160 129 q 166 127 172 127 q 189 127 189 111 l 189 97 l 189 95 l 189 90 q 188 85 188 83 q 188 54 161 17 q 149 0 116 0 l 103 -1 z"},"p":{"x_min":0,"x_max":559,"ha":559,"o":"m 193 143 l 193 126 q 193 106 208 94 q 222 81 244 81 l 248 81 l 252 81 q 273 81 300 98 q 357 135 389 240 q 403 289 403 330 l 403 340 q 403 376 389 400 q 375 424 349 424 l 341 424 q 321 424 292 403 q 264 383 247 350 q 193 242 193 143 z m 497 348 l 497 326 q 497 275 472 223 q 430 131 396 93 q 327 15 224 15 q 212 15 184 23 q 155 30 153 30 q 137 30 131 9 q 127 -2 115 -71 q 102 -139 95 -158 q 82 -196 62 -196 l 54 -196 q 12 -196 12 -169 q 12 -99 57 66 q 149 412 158 433 q 173 470 226 470 q 241 470 247 452 q 249 446 251 446 q 254 446 272 461 q 290 476 304 486 q 337 510 379 510 q 437 510 467 464 q 497 419 497 348 z"},"X":{"x_min":0,"x_max":599,"ha":599,"o":"m 55 2 q 38 2 38 7 q 38 12 62 39 q 86 65 101 86 q 116 107 194 228 q 271 349 271 360 q 271 370 224 519 q 177 667 177 678 q 177 698 241 698 q 274 698 290 667 q 301 645 327 555 q 353 466 355 466 q 364 466 417 542 q 426 555 454 600 q 483 645 494 657 q 532 698 594 698 q 606 698 606 690 q 606 687 584 663 q 546 621 511 566 l 494 539 q 479 517 468 499 l 416 418 q 390 378 390 356 q 390 335 438 190 q 487 45 487 18 q 487 3 418 3 q 388 3 372 39 q 365 51 334 153 q 303 255 302 255 q 291 255 224 153 q 158 51 154 47 q 114 2 55 2 z"},"*":{"x_min":0,"x_max":464,"ha":464,"o":"m 284 408 l 262 411 q 261 411 250 405 q 239 400 234 400 l 230 400 q 212 400 169 418 q 158 424 158 443 q 158 462 178 481 q 198 501 198 517 q 198 521 187 527 q 176 534 174 536 q 162 552 162 579 q 162 610 193 610 q 206 610 229 598 l 262 581 q 273 581 279 612 q 291 670 296 678 q 309 695 341 695 q 355 695 355 675 q 355 654 345 623 q 334 591 334 584 q 334 577 336 577 q 342 577 374 594 q 405 611 427 611 q 448 611 448 595 q 448 556 401 536 q 362 519 362 501 q 362 497 366 489 l 374 476 q 379 463 379 440 q 379 417 344 417 q 330 419 316 419 l 301 417 q 297 417 291 413 q 284 408 284 408 z"},"Y":{"x_min":0,"x_max":575,"ha":575,"o":"m 577 697 q 595 697 595 691 q 595 685 570 656 q 546 627 535 608 l 509 565 q 490 533 437 446 q 384 358 365 316 q 346 275 325 159 q 305 42 295 21 q 286 0 238 0 q 211 0 211 26 q 211 38 234 154 q 256 269 256 297 q 256 325 209 489 q 162 653 162 672 q 162 699 205 699 q 248 699 263 661 q 279 623 305 517 q 331 411 335 411 q 345 411 404 517 q 462 623 485 651 q 522 697 577 697 z"},"c":{"x_min":0,"x_max":479,"ha":479,"o":"m 255 4 l 233 4 q 202 4 166 18 q 93 45 68 118 q 56 153 56 195 l 56 206 q 57 266 80 322 q 151 494 325 494 q 382 494 426 479 q 470 463 470 444 q 470 427 457 415 q 444 403 428 403 q 411 403 377 413 q 344 422 313 422 q 283 422 251 406 q 220 391 193 357 q 146 295 146 195 q 146 141 178 109 q 210 78 261 78 q 280 78 329 91 q 377 104 386 104 q 410 104 410 71 q 410 51 393 40 q 342 4 255 4 z"},"!":{"x_min":0,"x_max":318,"ha":318,"o":"m 104 -2 l 98 -2 q 89 -1 88 -1 q 71 -1 71 17 l 71 25 l 72 27 q 72 76 101 104 q 114 118 138 118 q 145 120 147 120 l 158 121 l 168 121 q 174 119 180 119 q 197 119 197 108 l 198 104 l 198 89 q 196 79 196 72 q 196 50 172 17 q 159 -1 127 -1 l 119 -2 l 114 -2 l 108 -3 l 106 -3 z m 300 688 l 300 683 q 300 678 259 484 q 219 290 202 235 q 191 198 153 198 l 148 198 q 130 198 130 216 l 130 221 q 130 234 164 442 q 197 649 206 677 q 215 704 266 704 l 271 704 q 300 704 300 688 z"},"/":{"x_min":0,"x_max":422,"ha":422,"o":"m 450 733 q 471 733 471 729 q 471 725 382 556 q 293 388 193 193 q 93 -2 65 -49 q 44 -85 8 -85 l 0 -85 q -21 -85 -21 -80 q -21 -76 68 93 q 157 261 255 452 q 354 644 385 697 q 406 733 442 733 z"},"[":{"x_min":0,"x_max":351,"ha":351,"o":"m 272 715 l 351 720 l 371 720 q 390 720 390 711 q 390 684 375 671 q 359 658 321 649 q 283 641 282 640 q 262 630 253 601 q 244 572 188 268 q 132 -37 132 -54 q 132 -71 141 -79 q 150 -86 174 -92 q 198 -97 205 -101 q 227 -115 227 -134 q 227 -165 206 -165 l 146 -165 q 80 -165 62 -158 q 44 -151 44 -127 l 44 -106 q 44 -72 77 92 q 110 255 145 444 q 179 632 189 666 q 200 699 215 707 q 231 715 272 715 z"},"6":{"x_min":0,"x_max":563,"ha":563,"o":"m 190 173 l 190 165 q 190 126 208 102 q 225 78 254 78 l 257 78 q 305 78 351 137 q 397 196 397 269 l 397 286 q 397 317 379 338 q 361 358 336 358 l 329 358 l 325 357 q 275 357 232 303 q 190 249 190 173 z m 90 278 l 90 301 q 90 364 119 433 q 147 503 199 562 q 296 674 423 674 q 487 674 513 655 q 521 648 521 640 l 521 634 q 521 614 465 614 q 375 614 307 562 q 268 531 248 496 q 228 461 228 438 q 228 414 247 414 l 273 421 q 285 423 311 423 q 337 423 372 407 q 436 378 465 299 q 481 257 481 204 q 481 111 431 54 q 384 0 306 0 q 262 0 220 21 q 140 62 106 168 q 90 220 90 278 z"},"r":{"x_min":0,"x_max":374,"ha":374,"o":"m 387 469 q 387 437 373 422 q 360 408 323 408 q 286 408 262 393 q 239 377 214 342 q 188 306 162 174 q 136 42 132 34 q 116 0 57 0 q 41 0 41 10 l 51 55 q 59 86 82 222 q 121 448 143 473 q 155 487 184 487 q 232 487 238 455 q 241 435 244 435 q 247 435 263 454 q 280 473 286 477 q 314 499 343 499 q 387 499 387 469 z"},"2":{"x_min":0,"x_max":557,"ha":557,"o":"m 418 0 q 405 0 371 3 q 309 8 200 8 q 92 8 78 11 q 46 16 46 33 q 46 74 102 133 q 133 167 240 255 q 347 343 384 390 q 435 454 435 509 q 435 547 412 574 q 388 601 345 601 q 303 601 238 567 q 173 533 161 533 q 131 533 131 563 q 131 575 148 597 q 165 620 229 653 q 292 686 362 686 q 431 686 479 643 q 528 600 528 523 q 528 447 468 371 q 427 320 310 224 q 193 127 193 102 q 193 87 288 87 q 382 87 417 74 q 452 62 452 31 q 452 0 418 0 z"},"{":{"x_min":0,"x_max":381,"ha":381,"o":"m 236 -170 q 176 -170 143 -137 q 109 -104 109 -40 q 109 -10 124 58 q 139 126 139 158 q 139 190 128 207 q 117 224 94 237 q 70 251 70 265 l 70 276 q 70 302 120 324 q 156 340 173 375 q 189 411 203 513 q 217 614 243 650 q 270 687 310 706 q 349 725 390 725 l 400 725 q 418 725 418 715 q 418 693 407 679 q 396 665 358 647 q 321 630 305 600 q 288 570 276 482 q 264 395 249 363 q 234 331 217 316 q 201 302 183 293 q 165 283 165 280 q 164 277 178 263 q 192 249 205 229 q 218 208 218 177 q 218 176 218 175 q 218 173 218 172 q 218 171 218 170 q 218 169 218 168 q 218 138 205 73 q 191 5 191 -15 q 191 -61 229 -89 q 265 -117 265 -146 q 265 -170 236 -170 z"},"9":{"x_min":0,"x_max":563,"ha":563,"o":"m 278 333 l 286 333 q 339 333 381 386 q 423 440 423 512 l 423 529 q 423 562 407 586 q 392 611 364 611 l 356 611 l 353 611 q 332 611 305 594 q 279 578 260 549 q 217 482 217 417 l 217 413 l 217 408 q 217 375 234 354 q 251 333 278 333 z m 522 378 q 522 317 490 245 q 457 173 408 120 q 311 14 182 14 q 130 14 101 31 q 90 38 90 46 l 90 52 q 90 74 142 74 q 234 74 300 124 q 339 153 363 189 q 386 226 386 260 q 386 275 370 275 l 362 273 l 344 269 q 328 266 300 266 q 271 266 235 286 q 134 340 134 496 q 134 539 150 578 q 194 690 307 690 q 354 690 394 670 q 473 627 506 521 q 523 468 523 400 l 522 389 z"}," ":{"x_min":0,"x_max":297,"ha":297,"o":""},"I":{"x_min":0,"x_max":305,"ha":305,"o":"m 245 701 l 267 701 q 299 701 299 669 q 299 641 268 553 q 257 521 226 356 q 194 191 194 161 l 193 146 l 193 123 q 193 60 170 24 q 154 0 113 0 l 92 0 q 59 0 59 31 q 59 57 80 115 q 100 173 118 265 q 164 498 164 524 l 165 547 l 166 570 q 166 635 184 668 q 202 701 245 701 z"},"H":{"x_min":0,"x_max":673,"ha":673,"o":"m 671 681 q 682 681 682 668 q 682 656 652 534 q 623 413 604 307 q 584 193 547 80 q 541 60 531 51 q 521 42 490 42 q 460 42 446 55 q 433 67 433 105 q 433 119 450 199 q 468 279 468 295 q 468 312 451 320 q 433 329 377 329 q 321 329 250 313 q 221 307 208 292 q 196 276 176 183 q 155 90 144 62 q 133 34 109 22 q 86 11 65 11 q 43 11 43 20 l 43 32 q 43 40 61 104 q 79 167 106 311 q 133 454 146 499 q 182 627 193 644 q 205 661 238 661 q 272 661 284 649 q 297 636 297 615 q 297 595 281 516 q 264 438 264 429 q 264 406 278 399 q 294 392 344 388 q 366 387 373 387 q 410 387 448 394 q 501 404 510 409 q 533 423 553 521 q 573 619 583 639 q 605 681 658 681 z"},"4":{"x_min":0,"x_max":564,"ha":564,"o":"m 235 258 l 261 260 q 319 260 329 280 q 342 306 358 376 q 374 447 387 495 q 400 542 400 547 l 400 549 l 399 550 q 397 550 322 447 q 247 344 237 335 q 159 263 159 259 l 159 257 q 159 255 167 255 l 183 255 l 187 256 l 210 256 z m 340 14 l 331 14 q 301 14 301 35 q 301 44 310 79 q 313 99 313 118 q 313 136 302 143 q 292 149 221 149 q 151 149 98 163 q 78 168 78 193 q 78 218 115 271 q 239 449 387 634 q 439 699 496 699 l 504 699 q 519 699 519 682 q 519 672 476 500 q 433 329 433 305 q 433 281 456 270 q 479 259 479 229 q 479 200 458 184 q 453 181 428 173 q 403 165 395 154 q 386 142 384 95 q 381 48 377 34 q 371 14 340 14 z"},"~":{"x_min":0,"x_max":586,"ha":586,"o":"m 204 382 l 216 382 q 256 382 324 341 q 393 300 420 300 q 448 300 479 336 q 509 372 532 372 q 554 372 554 353 l 554 347 q 554 308 508 266 q 461 225 417 225 l 412 225 q 369 225 300 266 q 232 307 203 307 q 174 307 143 270 q 112 233 89 233 q 67 233 67 253 l 67 258 q 67 295 113 339 q 158 382 204 382 z"},"D":{"x_min":0,"x_max":664,"ha":664,"o":"m 503 430 l 503 446 q 503 524 473 564 q 442 604 386 604 l 361 604 q 310 604 298 580 q 296 577 283 495 q 269 412 260 372 q 235 263 219 204 l 213 184 l 208 170 q 190 105 190 104 q 190 92 227 92 l 245 92 q 351 92 420 181 q 456 227 479 295 q 503 362 503 430 z m 404 693 l 423 693 q 505 693 553 639 q 601 585 601 496 l 601 474 q 601 266 480 125 q 432 67 355 33 q 278 -1 196 -1 l 152 -1 q 67 -1 67 17 q 67 25 81 67 q 117 177 147 295 q 177 413 200 532 q 224 651 226 655 q 232 669 253 675 q 320 693 404 693 z"},"^":{"x_min":0,"x_max":572,"ha":572,"o":"m 531 335 q 531 327 513 327 q 464 327 439 360 q 425 379 377 492 q 329 604 318 604 q 312 604 253 493 q 195 383 181 365 q 150 327 102 327 l 94 327 q 84 327 84 334 q 84 366 269 658 q 292 693 319 693 l 327 693 q 363 693 382 656 q 531 368 531 335 z"},"0":{"x_min":0,"x_max":569,"ha":569,"o":"m 428 480 l 428 500 q 428 548 413 578 q 399 609 370 609 l 360 609 q 334 608 307 579 q 246 514 212 354 q 194 264 194 216 l 194 182 q 194 134 210 107 q 227 80 252 80 l 262 80 q 291 80 325 120 q 376 182 410 342 q 428 424 428 480 z m 519 510 l 519 500 q 519 499 519 497 q 519 403 491 303 q 436 102 334 26 q 288 -9 235 -9 l 227 -9 q 171 -9 137 38 q 103 86 103 168 l 103 198 q 103 278 129 381 q 155 483 196 554 q 278 698 386 698 l 395 698 q 451 698 485 651 q 519 604 519 510 z"},"F":{"x_min":0,"x_max":519,"ha":519,"o":"m 369 614 q 298 614 278 592 q 267 580 250 528 q 232 476 232 456 q 232 436 253 430 q 263 427 288 424 l 312 421 q 395 412 415 399 q 435 387 435 364 q 435 317 405 308 q 397 306 358 301 q 229 285 204 255 q 190 239 181 165 q 171 90 157 58 q 143 26 105 26 q 68 26 68 42 l 68 53 q 68 64 101 174 q 135 283 144 338 q 154 393 161 504 q 167 616 177 641 q 186 666 216 674 q 278 691 365 691 l 392 692 l 516 692 q 562 692 562 664 q 562 628 526 621 q 491 614 369 614 z"},"`":{"x_min":0,"x_max":395,"ha":395,"o":"m 311 584 l 294 586 q 278 586 224 649 q 169 711 169 722 l 169 726 q 169 734 194 734 l 207 734 l 209 733 l 211 733 q 250 733 268 716 q 275 709 305 655 q 335 600 335 593 l 335 591 q 335 584 326 584 z"},"k":{"x_min":0,"x_max":511,"ha":511,"o":"m 356 7 q 328 7 313 33 q 308 41 273 133 q 237 225 223 225 q 204 225 191 190 q 179 154 172 108 q 165 61 158 44 q 142 8 105 8 q 81 8 81 24 l 83 36 l 89 61 q 96 101 104 193 q 130 396 136 422 q 195 660 205 680 q 214 699 241 699 q 276 699 276 664 q 276 658 239 507 q 202 356 202 335 q 202 329 209 329 q 226 329 296 405 q 366 482 389 498 q 412 514 443 514 q 475 514 475 504 q 475 491 407 411 q 339 331 327 313 q 315 295 315 271 q 315 246 361 144 q 406 42 406 35 q 406 7 356 7 z"},"u":{"x_min":0,"x_max":546,"ha":546,"o":"m 464 467 q 488 479 505 479 q 523 479 523 444 q 523 409 500 329 q 477 250 463 170 q 450 91 443 72 q 429 32 376 32 q 360 32 353 45 q 345 59 339 59 q 338 59 316 44 q 254 4 205 4 l 192 4 q 140 4 105 40 q 70 76 70 140 l 70 153 q 70 177 85 253 q 99 329 103 380 q 107 432 114 459 q 120 487 142 487 q 174 487 187 472 q 199 457 199 425 q 199 418 182 317 q 166 216 166 165 q 166 114 183 93 q 201 72 230 72 q 294 72 341 135 q 373 179 393 265 q 398 289 410 351 q 421 413 431 434 q 441 455 464 467 z"},"]":{"x_min":0,"x_max":351,"ha":351,"o":"m 25 -166 l 5 -166 q -12 -166 -12 -154 q -12 -129 5 -116 q 28 -99 58 -94 q 87 -90 99 -84 q 117 -75 126 -47 q 135 -20 191 286 q 247 592 247 606 q 247 639 199 648 q 151 657 151 691 q 151 720 175 720 l 235 720 q 300 720 321 710 q 334 704 334 680 l 334 669 q 334 615 267 285 q 249 196 223 51 q 197 -94 186 -122 q 176 -150 150 -156 q 110 -166 25 -166 z"},"U":{"x_min":0,"x_max":662,"ha":662,"o":"m 313 -5 l 294 -5 q 205 -5 150 41 q 89 91 89 186 l 89 203 q 89 246 114 373 q 149 560 153 590 q 156 619 158 646 q 160 674 162 679 q 166 694 176 694 q 212 694 229 682 q 247 669 247 636 q 247 602 216 438 q 185 273 185 208 q 185 144 218 110 q 251 75 304 75 q 357 75 395 95 q 433 114 463 165 q 493 216 530 412 q 566 608 578 636 q 602 690 666 691 q 679 691 679 677 q 679 664 667 623 q 647 558 613 375 q 579 191 542 126 q 505 61 444 28 q 383 -5 313 -5 z"},"o":{"x_min":0,"x_max":550,"ha":550,"o":"m 176 183 l 176 163 q 176 120 194 98 q 211 76 237 76 q 238 76 238 76 q 294 76 338 144 q 362 181 378 232 q 393 283 393 318 l 393 342 q 393 378 376 402 q 358 425 332 425 l 323 425 q 304 425 278 408 q 222 372 190 267 q 176 218 176 183 z m 357 501 l 372 501 q 432 501 463 461 q 495 421 495 360 l 495 353 l 495 345 q 495 344 495 343 q 495 342 495 341 q 495 287 470 223 q 417 89 315 30 q 262 -1 212 -1 l 198 -1 q 136 -1 101 45 q 74 82 74 147 l 74 155 q 74 208 98 275 q 122 343 165 394 q 208 446 259 474 q 309 501 357 501 z"},"N":{"x_min":0,"x_max":686,"ha":686,"o":"m 544 18 q 489 18 458 66 q 444 86 344 312 q 244 538 234 538 q 233 538 196 333 q 159 128 147 91 q 122 8 65 8 q 43 8 43 17 q 43 18 63 103 q 83 188 124 416 q 165 644 171 662 q 178 680 204 680 q 263 680 303 612 q 310 601 404 386 q 499 172 509 172 q 509 172 547 381 q 585 589 598 625 q 622 692 682 692 q 698 692 698 678 q 698 668 686 625 q 673 581 625 332 l 572 51 q 565 18 544 18 z"},"+":{"x_min":0,"x_max":597,"ha":597,"o":"m 257 251 l 107 236 q 93 236 93 246 l 93 253 q 93 303 117 313 q 118 314 199 325 q 280 336 282 339 q 285 342 300 420 q 315 499 317 504 q 325 527 375 527 l 383 527 q 393 527 393 515 q 393 503 380 436 l 375 409 q 365 363 365 356 q 365 345 375 345 l 455 354 l 473 356 q 517 361 518 361 q 539 361 539 351 q 539 292 514 283 q 505 279 429 271 q 354 262 350 258 q 347 254 331 176 q 316 97 314 91 q 306 68 256 68 l 248 68 q 238 68 238 81 q 238 94 252 167 q 267 240 267 246 q 267 251 257 251 z"},"G":{"x_min":0,"x_max":685,"ha":685,"o":"m 464 36 q 386 5 323 5 q 209 5 140 81 q 74 152 74 276 q 74 368 106 448 q 172 611 312 668 q 375 694 448 694 q 522 694 591 671 q 661 647 661 618 q 661 600 647 589 q 634 578 617 578 q 600 578 542 595 q 484 612 431 612 q 378 612 327 584 q 229 532 188 407 q 168 349 168 266 q 168 229 183 191 q 197 152 222 128 q 267 83 337 83 q 408 83 451 120 q 494 158 494 209 q 494 231 470 254 q 447 276 447 297 q 447 318 482 335 q 518 351 563 351 q 608 351 620 341 q 632 330 632 310 q 632 270 583 129 q 569 88 545 67 z"},"q":{"x_min":0,"x_max":557,"ha":557,"o":"m 173 176 l 173 162 q 173 126 188 103 q 202 80 226 80 l 233 80 q 253 80 282 101 q 337 140 368 262 q 384 327 384 363 l 384 372 q 384 425 332 425 l 328 425 q 305 425 278 408 q 251 391 228 354 q 174 272 174 187 z m 302 506 l 321 506 q 339 506 381 487 q 422 468 428 468 q 435 468 450 482 q 465 496 484 496 q 502 496 502 478 q 502 465 489 417 q 428 191 406 -10 l 401 -66 q 393 -155 392 -160 q 385 -181 354 -181 q 316 -181 316 -146 q 316 -143 320 -126 l 322 -116 q 329 -84 338 -29 q 346 15 346 24 q 346 26 345 26 q 343 26 307 1 q 271 -23 235 -23 q 199 -23 170 -5 q 90 46 90 172 q 90 229 106 290 q 139 409 224 473 q 267 506 302 506 z"},"d":{"x_min":0,"x_max":558,"ha":558,"o":"m 384 353 l 384 371 q 384 390 372 405 q 360 419 336 419 l 324 419 q 305 419 277 402 q 249 384 226 344 q 174 256 174 172 l 174 153 q 174 121 188 98 q 202 74 226 74 l 237 74 q 260 74 287 96 q 315 118 333 154 q 384 256 384 353 z m 342 479 l 412 475 q 436 475 442 490 q 449 504 465 593 q 482 682 493 700 q 504 717 535 717 l 543 717 q 570 717 570 694 q 570 630 424 83 q 417 58 401 45 q 385 32 366 32 q 347 32 342 37 q 336 42 330 50 q 324 58 320 58 q 316 59 300 44 q 239 -10 189 -10 q 188 -10 188 -10 q 139 -10 108 29 q 78 68 78 138 q 78 209 99 268 q 120 326 161 378 q 240 479 342 479 z"},"1":{"x_min":0,"x_max":537,"ha":537,"o":"m 256 0 l 229 0 q 201 0 182 18 q 163 36 163 59 q 163 105 202 149 q 240 193 251 232 q 292 378 292 481 q 292 516 280 531 q 272 539 256 543 q 205 558 205 590 q 205 609 243 628 q 339 676 374 676 l 381 676 q 403 676 403 646 l 403 637 q 403 627 389 526 q 375 425 361 342 q 347 258 347 233 q 347 207 359 178 q 372 150 372 116 q 372 82 349 54 q 303 0 256 0 z"},"5":{"x_min":0,"x_max":557,"ha":557,"o":"m 260 352 l 186 346 q 159 346 149 359 q 140 373 140 400 q 140 427 170 531 q 199 634 213 651 q 226 668 252 673 q 278 679 338 679 q 414 679 457 683 q 500 687 521 687 q 542 687 542 676 q 542 661 529 641 q 516 621 490 610 q 464 600 384 600 q 304 600 278 573 q 263 557 248 513 q 233 470 233 453 q 233 435 238 432 q 242 428 287 428 q 379 428 437 378 q 492 328 492 242 q 492 194 473 146 q 453 97 415 62 q 340 -9 238 -9 q 183 -9 128 12 q 40 44 40 65 q 40 82 52 95 q 64 107 81 107 q 98 107 149 89 q 199 71 240 71 q 304 71 353 119 q 401 167 401 230 q 401 293 363 323 q 324 352 260 352 z"}}}
